#N canvas 1176 607 509 216 12;
#N canvas 1191 66 572 757 grafica------- 0;
#N canvas 617 32 450 300 gemwin 0;
#X obj 132 136 gemwin;
#X obj 67 89 outlet;
#X obj 67 10 inlet;
#X obj 67 41 route create;
#X msg 67 70 set destroy;
#X msg 142 68 set create;
#X msg 198 112 destroy;
#X msg 132 112 create \, 1;
#X obj 171 11 inlet;
#X msg 233 70 dimen 640 480;
#X obj 233 35 loadbang;
#X connect 2 0 3 0;
#X connect 3 0 4 0;
#X connect 3 0 7 0;
#X connect 3 1 5 0;
#X connect 3 1 6 0;
#X connect 4 0 1 0;
#X connect 5 0 1 0;
#X connect 6 0 0 0;
#X connect 7 0 0 0;
#X connect 8 0 0 0;
#X connect 9 0 0 0;
#X connect 10 0 9 0;
#X restore 23 137 pd gemwin;
#X msg 23 118 destroy;
#X obj 23 172 tgl 15 0 empty empty empty 17 7 0 10 -262144 -1 -1 0
1;
#X obj 23 191 gemhead;
#X obj 22 574 rectangle 4 3;
#X obj 22 216 glsl_fragment;
#X obj 59 312 change;
#X floatatom 61 334 5 0 0 0 - - -;
#X obj 43 384 pack 0 0;
#X obj 61 357 t b f;
#X msg 43 410 link \$1 \$2;
#X obj 19 461 glsl_program;
#X msg 177 449 time \$1;
#X obj 160 142 bng 15 250 50 0 empty empty open_shader_manual 17 7
0 10 -262144 -1 -1;
#X obj 177 360 metro 100;
#X obj 228 335 * 1000;
#X obj 177 406 f 0;
#X obj 205 406 + 1;
#X floatatom 194 429 5 0 0 0 - - -;
#X msg 197 336 0;
#X obj 202 386 print;
#X obj 228 311 /;
#X msg 228 290 1;
#X obj 228 266 t b f;
#X msg 160 75 frame \$1;
#X obj 17 44 nbx 4 20 100 1980 0 1 empty empty Window_Size 0 -8 0 14
-262144 -1 -1 800 256;
#X obj 159 47 nbx 4 20 1 60 0 1 empty empty FPS 0 -8 0 14 -262144 -1
-1 24 256;
#X obj 91 48 nbx 4 20 100 1980 0 1 empty empty empty 0 -8 0 14 -262144
-1 -1 600 256;
#N canvas 0 22 173 162 pak 0;
#X obj 73 39 t b f;
#X obj 38 19 inlet;
#X obj 38 90 outlet;
#X obj 73 19 inlet;
#X obj 38 69 pack f f;
#X connect 0 0 4 0;
#X connect 0 1 4 1;
#X connect 1 0 4 0;
#X connect 3 0 0 0;
#X connect 4 0 2 0;
#X restore 22 75 pd pak f f;
#X msg 23 97 dimen \$1 \$2;
#X msg 20 435 resolution \$1 \$2;
#X obj 244 -28 loadbang;
#X obj 68 -14 bng 15 250 50 0 empty empty empty 17 7 0 10 -262144 -1
-1;
#X floatatom 64 548 5 0 0 2 width - -;
#X floatatom 110 546 5 0 0 2 height - -;
#X obj 177 336 bng 15 250 50 0 empty empty empty 17 7 0 10 -262144
-1 -1;
#X obj 20 501 unpack f f;
#X msg 21 237 set \$1 \$2;
#X msg 21 264 800 600;
#X obj 158 240 del 50;
#X obj 158 210 t b b b;
#N canvas 188 23 1534 903 control------------------ 0;
#X msg 574 471 pd \; inputv1 -10 \; inputv2 0 \; inputv3 0.5 \; inputv4
0.1 \; inputv5 0.1 \; inputv6 0 \; inputv7 0.1 \; inputv8 0.1 \; inputv9
0.1 \; inputv10 0.1 \;;
#X msg 875 658 pd \; inputv1 -10 \; inputv2 0 \; inputv3 0 \; inputv4
0.1 \; inputv5 6.3 \; inputv6 2.3 \; inputv7 0.1 \; inputv8 0.1 \;
inputv9 3.8 \; inputv10 5 \;;
#X msg 1349 656 pd \; inputv1 1.3 \; inputv2 0 \; inputv3 0 \; inputv4
-0.15 \; inputv5 0.38 \; inputv6 1 \; inputv7 0.1 \; inputv8 0.1 \;
inputv9 0.1 \; inputv10 0.1 \;;
#X msg 138 256 pd \; inputv1 -10 \; inputv2 1 \; inputv3 -3 \; inputv4
-0.15 \; inputv5 0.1 \; inputv6 0 \; inputv7 0.1 \; inputv8 0.1 \;
inputv9 0.1 \; inputv10 0.1 \;;
#X msg 12 254 pd \; inputv1 -10 \; inputv2 1 \; inputv3 0.01 \; inputv4
-0.15 \; inputv5 0.1 \; inputv6 0 \; inputv7 0.1 \; inputv8 0.1 \;
inputv9 0.1 \; inputv10 0.1 \;;
#X msg 12 48 pd \; inputv1 -10 \; inputv2 1 \; inputv3 0.01 \; inputv4
-0.3 \; inputv5 0.1 \; inputv6 0 \; inputv7 0.1 \; inputv8 0.1 \; inputv9
0.1 \; inputv10 0.1 \;;
#X msg 282 259 pd \; inputv1 -10 \; inputv2 1 \; inputv3 0.01 \; inputv4
-0.15 \; inputv5 0.1 \; inputv6 0 \; inputv7 0.1 \; inputv8 0.1 \;
inputv9 0.1 \; inputv10 1 \;;
#X msg 735 466 pd \; inputv1 1.3 \; inputv2 0 \; inputv3 0.01 \; inputv4
-0.15 \; inputv5 0.1 \; inputv6 0 \; inputv7 0.1 \; inputv8 0.1 \;
inputv9 0.1 \; inputv10 0.1 \;;
#X msg 136 465 pd \; inputv1 1.3 \; inputv2 0 \; inputv3 0.01 \; inputv4
0.9 \; inputv5 0.1 \; inputv6 0 \; inputv7 0.1 \; inputv8 0.1 \; inputv9
0.1 \; inputv10 0.1 \;;
#X msg 1030 657 pd \; inputv1 1.3 \; inputv2 0 \; inputv3 0 \; inputv4
-0.15 \; inputv5 0.38 \; inputv6 1 \; inputv7 20 \; inputv8 0.1 \;
inputv9 0.1 \; inputv10 0.1 \;;
#X msg 277 676 pd \; inputv1 1.3 \; inputv2 0 \; inputv3 0 \; inputv4
-0.15 \; inputv5 0.38 \; inputv6 0.5 \; inputv7 20 \; inputv8 0.1 \;
inputv9 0.1 \; inputv10 0.1 \;;
#X msg 579 670 pd \; inputv1 1.3 \; inputv2 0 \; inputv3 0 \; inputv4
-0.15 \; inputv5 0.38 \; inputv6 1 \; inputv7 20 \; inputv8 0.1 \;
inputv9 0.1 \; inputv10 1 \;;
#X msg 423 673 pd \; inputv1 0 \; inputv2 0 \; inputv3 0 \; inputv4
-0.15 \; inputv5 0.38 \; inputv6 2 \; inputv7 0.1 \; inputv8 0.8 \;
inputv9 1 \; inputv10 1 \;;
#X msg 134 672 pd \; inputv1 0 \; inputv2 0 \; inputv3 0 \; inputv4
-0.15 \; inputv5 1.5 \; inputv6 2 \; inputv7 0.1 \; inputv8 0.8 \;
inputv9 5 \; inputv10 1 \;;
#X msg 732 665 pd \; inputv1 0 \; inputv2 0 \; inputv3 0 \; inputv4
-0.15 \; inputv5 1.5 \; inputv6 2 \; inputv7 0.1 \; inputv8 0.8 \;
inputv9 0.1 \; inputv10 1 \;;
#X msg 11 465 pd \; inputv1 -10 \; inputv2 0 \; inputv3 0.03 \; inputv4
0.1 \; inputv5 0.1 \; inputv6 0 \; inputv7 0.1 \; inputv8 0.1 \; inputv9
0.1 \; inputv10 0.1 \;;
#X msg 1195 655 pd \; inputv1 -10 \; inputv2 0 \; inputv3 0 \; inputv4
0.1 \; inputv5 0.73 \; inputv6 2.3 \; inputv7 0.1 \; inputv8 0.1 \;
inputv9 3.8 \; inputv10 0.1 \;;
#X msg 8 665 pd \; inputv1 -10 \; inputv2 0 \; inputv3 0.03 \; inputv4
0.1 \; inputv5 0.82 \; inputv6 1.5 \; inputv7 0.1 \; inputv8 0.1 \;
inputv9 0.1 \; inputv10 0.1 \;;
#X msg 277 473 pd \; inputv1 1.3 \; inputv2 1 \; inputv3 0.01 \; inputv4
0.9 \; inputv5 0.1 \; inputv6 0 \; inputv7 0.1 \; inputv8 0.1 \; inputv9
0.1 \; inputv10 0.1 \;;
#X msg 420 469 pd \; inputv1 1.3 \; inputv2 0 \; inputv3 -1 \; inputv4
0.9 \; inputv5 0.1 \; inputv6 0 \; inputv7 0.1 \; inputv8 0.1 \; inputv9
0.1 \; inputv10 0.1 \;;
#N canvas 187 174 1573 557 -------------control 0;
#X msg 58 318 inputval1 \$1;
#X msg 207 318 inputval2 \$1;
#X obj 59 210 vsl 15 96 -10 15 0 0 empty empty empty 0 -9 0 10 -262144
-1 -1 0 1;
#X obj 192 195 vsl 15 96 0 1 0 0 empty empty empty 0 -9 0 10 -262144
-1 -1 9500 1;
#X floatatom 214 270 5 0 0 0 - - -;
#X obj 319 214 vsl 15 96 -2 5 0 0 empty empty empty 0 -9 0 10 -262144
-1 -1 2728 1;
#X floatatom 346 288 5 0 0 0 - - -;
#X msg 319 316 inputval3 \$1;
#X obj 474 221 vsl 15 96 -1 10 0 0 empty empty empty 0 -9 0 10 -262144
-1 -1 734 1;
#X floatatom 499 298 5 0 0 0 - - -;
#X msg 471 327 inputval4 \$1;
#X obj 603 217 vsl 15 96 0.1 6.3 0 0 empty empty empty 0 -9 0 10 -262144
-1 -1 0 1;
#X floatatom 638 296 5 0 0 0 - - -;
#X msg 603 332 inputval5 \$1;
#X obj 752 214 vsl 15 96 0 5 0 0 empty empty empty 0 -9 0 10 -262144
-1 -1 0 1;
#X floatatom 787 302 5 0 0 0 - - -;
#X msg 746 333 inputval6 \$1;
#X obj 896 214 vsl 15 96 0.1 5 0 0 empty empty empty 0 -9 0 10 -262144
-1 -1 0 1;
#X floatatom 943 311 5 0 0 0 - - -;
#X obj 1052 207 vsl 15 96 0.1 5 0 0 empty empty empty 0 -9 0 10 -262144
-1 -1 0 1;
#X floatatom 1093 295 5 0 0 0 - - -;
#X obj 1207 194 vsl 15 96 0.1 5 0 0 empty empty empty 0 -9 0 10 -262144
-1 -1 0 1;
#X floatatom 1250 280 5 0 0 0 - - -;
#X msg 901 335 inputval7 \$1;
#X msg 1060 322 inputval8 \$1;
#X msg 1209 315 inputval9 \$1;
#X floatatom 86 290 5 0 0 0 - - -;
#X obj 658 378 outlet;
#X obj 194 165 line;
#X obj 192 138 pack f f;
#X obj 59 176 line;
#X obj 59 150 pack f f;
#X obj 329 163 line;
#X obj 104 120 r G-tiempo;
#X obj 239 108 r G-tiempo;
#X obj 374 104 r G-tiempo;
#X obj 475 179 line;
#X obj 475 153 pack f f;
#X obj 520 120 r G-tiempo;
#X obj 603 170 line;
#X obj 603 144 pack f f;
#X obj 648 111 r G-tiempo;
#X obj 752 178 line;
#X obj 752 152 pack f f;
#X obj 797 119 r G-tiempo;
#X obj 897 151 line;
#X obj 896 127 pack f f;
#X obj 941 94 r G-tiempo;
#X obj 1049 176 line;
#X obj 1049 150 pack f f;
#X obj 1094 117 r G-tiempo;
#X obj 1208 155 line;
#X obj 1208 129 pack f f;
#X obj 1253 96 r G-tiempo;
#X obj 329 137 pack f 0;
#X obj 96 189 random;
#X obj 1375 183 vsl 15 96 0.1 5 0 0 empty empty empty 0 -9 0 10 -262144
-1 -1 0 1;
#X floatatom 1416 271 5 0 0 0 - - -;
#X obj 1372 152 line;
#X obj 1372 126 pack f f;
#X obj 1417 93 r G-tiempo;
#X msg 1384 298 inputval10 \$1;
#X obj 57 77 r inputv1;
#X obj 197 71 r inputv2;
#X obj 483 80 r inputv4;
#X obj 608 78 r inputv5;
#X obj 757 77 r inputv6;
#X obj 893 63 r inputv7;
#X obj 1047 79 r inputv8;
#X obj 1206 50 r inputv9;
#X obj 1366 51 r inputv10;
#X obj 1310 146 r w;
#X floatatom 1309 170 5 0 0 0 - - -;
#X obj 1308 244 * 5;
#X obj 1309 193 - 15;
#X obj 1309 219 / 60;
#X obj 328 80 r inputv3;
#X obj 28 37 s G-tiempo;
#X obj 26 10 inlet;
#X connect 0 0 27 0;
#X connect 1 0 27 0;
#X connect 2 0 0 0;
#X connect 2 0 26 0;
#X connect 3 0 1 0;
#X connect 3 0 4 0;
#X connect 4 0 1 0;
#X connect 5 0 7 0;
#X connect 5 0 6 0;
#X connect 6 0 7 0;
#X connect 7 0 27 0;
#X connect 8 0 10 0;
#X connect 8 0 9 0;
#X connect 9 0 10 0;
#X connect 10 0 27 0;
#X connect 11 0 13 0;
#X connect 11 0 12 0;
#X connect 12 0 13 0;
#X connect 13 0 27 0;
#X connect 14 0 16 0;
#X connect 14 0 15 0;
#X connect 15 0 16 0;
#X connect 16 0 27 0;
#X connect 17 0 23 0;
#X connect 17 0 18 0;
#X connect 18 0 23 0;
#X connect 19 0 24 0;
#X connect 19 0 20 0;
#X connect 20 0 24 0;
#X connect 21 0 25 0;
#X connect 21 0 22 0;
#X connect 22 0 25 0;
#X connect 23 0 27 0;
#X connect 24 0 27 0;
#X connect 25 0 27 0;
#X connect 26 0 0 0;
#X connect 28 0 3 0;
#X connect 29 0 28 0;
#X connect 30 0 2 0;
#X connect 31 0 30 0;
#X connect 32 0 5 0;
#X connect 33 0 31 1;
#X connect 34 0 29 1;
#X connect 35 0 54 1;
#X connect 36 0 8 0;
#X connect 37 0 36 0;
#X connect 38 0 37 1;
#X connect 39 0 11 0;
#X connect 40 0 39 0;
#X connect 41 0 40 1;
#X connect 42 0 14 0;
#X connect 43 0 42 0;
#X connect 44 0 43 1;
#X connect 45 0 17 0;
#X connect 46 0 45 0;
#X connect 47 0 46 1;
#X connect 48 0 19 0;
#X connect 49 0 48 0;
#X connect 50 0 49 1;
#X connect 51 0 21 0;
#X connect 52 0 51 0;
#X connect 53 0 52 1;
#X connect 54 0 32 0;
#X connect 56 0 61 0;
#X connect 56 0 57 0;
#X connect 57 0 61 0;
#X connect 58 0 56 0;
#X connect 59 0 58 0;
#X connect 60 0 59 1;
#X connect 61 0 27 0;
#X connect 62 0 31 0;
#X connect 63 0 29 0;
#X connect 64 0 37 0;
#X connect 65 0 40 0;
#X connect 66 0 43 0;
#X connect 67 0 46 0;
#X connect 68 0 49 0;
#X connect 69 0 52 0;
#X connect 70 0 59 0;
#X connect 71 0 72 0;
#X connect 72 0 74 0;
#X connect 73 0 57 0;
#X connect 73 0 22 0;
#X connect 74 0 75 0;
#X connect 75 0 73 0;
#X connect 76 0 54 0;
#X connect 78 0 77 0;
#X restore 389 48 pd -------------control de Shader --------------------------
;
#X obj 388 85 outlet;
#X floatatom 387 14 5 0 0 0 - - -;
#X obj 159 -34 r energia;
#X obj 136 196 random 2;
#X obj 139 173 bng 15 250 50 0 empty empty empty 17 7 0 10 -262144
-1 -1;
#X obj 135 220 select 0 1 2;
#X obj 431 255 bng 15 250 50 0 empty empty empty 17 7 0 10 -262144
-1 -1;
#X obj 427 302 select 0 1 2 3 4 5;
#X obj 673 347 bng 15 250 50 0 empty empty empty 17 7 0 10 -262144
-1 -1;
#X obj 670 370 random 8;
#X obj 428 278 random 5;
#X obj 668 394 select 0 1 2 3 4 5 6 7 8;
#X obj 159 -8 select 0 1 2 3;
#X obj 11 24 bng 15 250 50 0 empty empty empty 17 7 0 10 -262144 -1
-1;
#X obj 63 -76 key;
#X obj 67 -45 select 32;
#X obj 65 -15 random 4;
#X connect 20 0 21 0;
#X connect 22 0 20 0;
#X connect 23 0 33 0;
#X connect 24 0 26 0;
#X connect 25 0 24 0;
#X connect 26 0 4 0;
#X connect 26 1 3 0;
#X connect 26 2 6 0;
#X connect 27 0 31 0;
#X connect 28 0 15 0;
#X connect 28 1 8 0;
#X connect 28 2 18 0;
#X connect 28 3 19 0;
#X connect 28 4 0 0;
#X connect 28 5 7 0;
#X connect 29 0 30 0;
#X connect 30 0 32 0;
#X connect 31 0 28 0;
#X connect 32 0 17 0;
#X connect 32 1 13 0;
#X connect 32 2 10 0;
#X connect 32 3 12 0;
#X connect 32 4 11 0;
#X connect 32 5 14 0;
#X connect 32 6 1 0;
#X connect 32 7 9 0;
#X connect 32 8 16 0;
#X connect 33 0 34 0;
#X connect 33 1 25 0;
#X connect 33 2 27 0;
#X connect 33 3 29 0;
#X connect 34 0 5 0;
#X connect 35 0 36 0;
#X connect 36 0 37 0;
#X connect 37 0 33 0;
#X restore 22 286 pd control------------------;
#X obj 160 162 openpanel;
#X msg 160 187 open \$1;
#X msg 241 83 create;
#X obj 68 -45 loadbang;
#X obj 242 58 del 200;
#X msg 251 27 open flor;
#X obj 68 5 t b b b;
#X obj 251 2 del 500;
#X connect 0 0 1 0;
#X connect 1 0 0 0;
#X connect 2 0 3 0;
#X connect 3 0 5 0;
#X connect 5 0 11 0;
#X connect 5 1 6 0;
#X connect 6 0 7 0;
#X connect 7 0 9 0;
#X connect 8 0 10 0;
#X connect 9 0 8 0;
#X connect 9 1 8 1;
#X connect 10 0 11 0;
#X connect 11 0 4 0;
#X connect 12 0 11 0;
#X connect 13 0 42 0;
#X connect 14 0 16 0;
#X connect 15 0 14 1;
#X connect 16 0 17 0;
#X connect 16 0 18 0;
#X connect 16 0 12 0;
#X connect 17 0 16 1;
#X connect 19 0 17 0;
#X connect 19 0 14 0;
#X connect 21 0 15 0;
#X connect 21 0 17 1;
#X connect 22 0 21 0;
#X connect 23 0 22 0;
#X connect 23 1 21 1;
#X connect 24 0 0 1;
#X connect 25 0 28 0;
#X connect 26 0 24 0;
#X connect 26 0 23 0;
#X connect 27 0 28 1;
#X connect 28 0 29 0;
#X connect 28 0 30 0;
#X connect 28 0 36 0;
#X connect 28 0 37 0;
#X connect 29 0 0 1;
#X connect 30 0 11 0;
#X connect 31 0 46 0;
#X connect 31 0 49 0;
#X connect 32 0 48 0;
#X connect 33 0 4 1;
#X connect 34 0 4 2;
#X connect 35 0 14 0;
#X connect 36 0 33 0;
#X connect 36 1 34 0;
#X connect 37 0 38 0;
#X connect 38 0 30 0;
#X connect 39 0 38 0;
#X connect 40 0 39 0;
#X connect 40 1 35 0;
#X connect 40 2 19 0;
#X connect 41 0 11 0;
#X connect 42 0 43 0;
#X connect 43 0 5 0;
#X connect 43 0 40 0;
#X connect 44 0 0 0;
#X connect 45 0 32 0;
#X connect 46 0 44 0;
#X connect 47 0 5 0;
#X connect 47 0 40 0;
#X connect 48 0 25 0;
#X connect 48 1 27 0;
#X connect 48 2 26 0;
#X connect 49 0 47 0;
#X restore -29 -67 pd grafica-------;
#N canvas 1288 63 450 374 CPUload 0;
#X floatatom 128 266 0 0 0 0 - - -;
#X obj 128 178 cputime;
#X obj 128 38 loadbang;
#X obj 128 122 metro 1000;
#X msg 128 66 1;
#X floatatom 128 94 0 0 0 0 - - -;
#X obj 128 150 t b b;
#X obj 128 238 * 0.1;
#X obj 128 207 int;
#X text 173 94 <-- on/off;
#X text 61 294 CPU load in percent;
#X connect 1 0 8 0;
#X connect 2 0 4 0;
#X connect 3 0 6 0;
#X connect 4 0 5 0;
#X connect 5 0 3 0;
#X connect 6 0 1 0;
#X connect 6 1 1 1;
#X connect 7 0 0 0;
#X connect 8 0 7 0;
#X restore -28 -92 pd CPUload;
#N canvas 204 26 720 839 audio--------- 0;
#X floatatom 283 470 5 0 0 0 - - -;
#X obj 283 444 r QFT;
#N canvas 795 135 986 794 QFT 0;
#X obj 142 143 nbx 3 14 -36 36 0 1 empty empty empty 0 -8 0 10 -262144
-1 -1 36 256;
#X obj 182 143 nbx 3 14 -36 36 0 1 empty empty empty 0 -8 0 10 -262144
-1 -1 -30 256;
#X obj 222 143 nbx 3 14 -36 36 0 1 empty empty empty 0 -8 0 10 -262144
-1 -1 36 256;
#X obj 120 382 +;
#X obj 222 394 +;
#X obj 298 399 +;
#X obj 305 363 t b f;
#X obj 233 346 t b f;
#X obj 145 337 t b f;
#N canvas 0 0 450 300 pan1 0;
#X obj 120 15 inlet;
#X obj 297 51 inlet~;
#X obj 256 225 outlet~;
#X obj 336 218 outlet~;
#X obj 251 149 *~;
#X obj 323 154 *~;
#X obj 276 122 + 1;
#X obj 335 113 * -1;
#X obj 208 75 * -1;
#X obj 160 42 clip 0 1;
#X connect 0 0 9 0;
#X connect 1 0 4 0;
#X connect 1 0 5 1;
#X connect 4 0 2 0;
#X connect 5 0 3 0;
#X connect 6 0 4 1;
#X connect 7 0 5 0;
#X connect 8 0 6 0;
#X connect 8 0 7 0;
#X connect 9 0 8 0;
#X restore 16 578 pd pan1;
#N canvas 0 0 450 300 pan1 0;
#X obj 120 15 inlet;
#X obj 297 51 inlet~;
#X obj 256 225 outlet~;
#X obj 336 218 outlet~;
#X obj 251 149 *~;
#X obj 323 154 *~;
#X obj 276 122 + 1;
#X obj 335 113 * -1;
#X obj 208 75 * -1;
#X obj 160 42 clip 0 1;
#X connect 0 0 9 0;
#X connect 1 0 4 0;
#X connect 1 0 5 1;
#X connect 4 0 2 0;
#X connect 5 0 3 0;
#X connect 6 0 4 1;
#X connect 7 0 5 0;
#X connect 8 0 6 0;
#X connect 8 0 7 0;
#X connect 9 0 8 0;
#X restore 76 579 pd pan1;
#N canvas 0 0 450 300 pan1 0;
#X obj 120 15 inlet;
#X obj 297 51 inlet~;
#X obj 256 225 outlet~;
#X obj 336 218 outlet~;
#X obj 251 149 *~;
#X obj 323 154 *~;
#X obj 276 122 + 1;
#X obj 335 113 * -1;
#X obj 208 75 * -1;
#X obj 160 42 clip 0 1;
#X connect 0 0 9 0;
#X connect 1 0 4 0;
#X connect 1 0 5 1;
#X connect 4 0 2 0;
#X connect 5 0 3 0;
#X connect 6 0 4 1;
#X connect 7 0 5 0;
#X connect 8 0 6 0;
#X connect 8 0 7 0;
#X connect 9 0 8 0;
#X restore 141 579 pd pan1;
#N canvas 0 0 450 300 pan1 0;
#X obj 120 15 inlet;
#X obj 297 51 inlet~;
#X obj 256 225 outlet~;
#X obj 336 218 outlet~;
#X obj 251 149 *~;
#X obj 323 154 *~;
#X obj 276 122 + 1;
#X obj 335 113 * -1;
#X obj 208 75 * -1;
#X obj 160 42 clip 0 1;
#X connect 0 0 9 0;
#X connect 1 0 4 0;
#X connect 1 0 5 1;
#X connect 4 0 2 0;
#X connect 5 0 3 0;
#X connect 6 0 4 1;
#X connect 7 0 5 0;
#X connect 8 0 6 0;
#X connect 8 0 7 0;
#X connect 9 0 8 0;
#X restore 206 579 pd pan1;
#X obj 275 124 nbx 6 14 1 1e+037 0 1 empty empty clocklen -50 8 0 10
-262144 -1 -1 10000 256;
#X obj 94 717 outlet~;
#X obj 236 728 outlet~;
#X obj 262 143 nbx 3 14 -36 36 0 1 empty empty empty 0 -8 0 10 -262144
-1 -1 11 256;
#X obj 420 409 +;
#X obj 418 372 t b f;
#N canvas 0 0 450 300 pan1 0;
#X obj 120 15 inlet;
#X obj 297 51 inlet~;
#X obj 256 225 outlet~;
#X obj 336 218 outlet~;
#X obj 251 149 *~;
#X obj 323 154 *~;
#X obj 276 122 + 1;
#X obj 335 113 * -1;
#X obj 208 75 * -1;
#X obj 160 42 clip 0 1;
#X connect 0 0 9 0;
#X connect 1 0 4 0;
#X connect 1 0 5 1;
#X connect 4 0 2 0;
#X connect 5 0 3 0;
#X connect 6 0 4 1;
#X connect 7 0 5 0;
#X connect 8 0 6 0;
#X connect 8 0 7 0;
#X connect 9 0 8 0;
#X restore 274 575 pd pan1;
#X obj 35 22 inlet;
#X obj 10 190 +;
#X obj 102 143 nbx 3 14 0 127 0 1 empty empty empty 0 -8 0 10 -262144
-1 -1 58 256;
#X obj 34 45 t b f;
#X text 77 24 tp;
#X obj 63 207 mtof;
#X obj 127 124 nbx 3 14 0 127 0 1 empty empty modp -25 8 0 10 -262144
-1 -1 56.2158 256;
#X obj 61 183 +;
#X obj 292 5 loadbang;
#X msg -87 112 bang;
#X obj 105 161 hsl 32 8 0 1 0 1 empty empty empty -2 -8 0 10 -262144
-1 -1 1700 1;
#X obj 145 161 hsl 32 8 0 1 0 1 empty empty empty -2 -8 0 10 -262144
-1 -1 1000 1;
#X obj 185 161 hsl 32 8 0 1 0 1 empty empty empty -2 -8 0 10 -262144
-1 -1 2400 1;
#X obj 225 161 hsl 32 8 0 1 0 1 empty empty empty -2 -8 0 10 -262144
-1 -1 2600 1;
#X obj 265 161 hsl 32 8 0 1 0 1 empty empty empty -2 -8 0 10 -262144
-1 -1 700 1;
#X obj 305 161 hsl 32 8 0 1 0 1 empty empty empty -2 -8 0 10 -262144
-1 -1 200 1;
#X obj 345 161 hsl 32 8 0 1 0 1 empty empty empty -2 -8 0 10 -262144
-1 -1 1200 1;
#X obj 302 143 nbx 3 14 -36 36 0 1 empty empty empty 0 -8 0 10 -262144
-1 -1 6 256;
#X obj 533 417 +;
#X obj 535 383 t b f;
#X obj 342 143 nbx 3 14 -36 36 0 1 empty empty empty 0 -8 0 10 -262144
-1 -1 6 256;
#X obj 663 420 +;
#X obj 667 389 t b f;
#N canvas 0 0 450 300 pan1 0;
#X obj 120 15 inlet;
#X obj 297 51 inlet~;
#X obj 256 225 outlet~;
#X obj 336 218 outlet~;
#X obj 251 149 *~;
#X obj 323 154 *~;
#X obj 276 122 + 1;
#X obj 335 113 * -1;
#X obj 208 75 * -1;
#X obj 160 42 clip 0 1;
#X connect 0 0 9 0;
#X connect 1 0 4 0;
#X connect 1 0 5 1;
#X connect 4 0 2 0;
#X connect 5 0 3 0;
#X connect 6 0 4 1;
#X connect 7 0 5 0;
#X connect 8 0 6 0;
#X connect 8 0 7 0;
#X connect 9 0 8 0;
#X restore 339 578 pd pan1;
#N canvas 1 79 450 300 pan1 0;
#X obj 120 15 inlet;
#X obj 297 51 inlet~;
#X obj 256 225 outlet~;
#X obj 336 218 outlet~;
#X obj 251 149 *~;
#X obj 323 154 *~;
#X obj 276 122 + 1;
#X obj 335 113 * -1;
#X obj 208 75 * -1;
#X obj 160 42 clip 0 1;
#X connect 0 0 9 0;
#X connect 1 0 4 0;
#X connect 1 0 5 1;
#X connect 4 0 2 0;
#X connect 5 0 3 0;
#X connect 6 0 4 1;
#X connect 7 0 5 0;
#X connect 8 0 6 0;
#X connect 8 0 7 0;
#X connect 9 0 8 0;
#X restore 418 574 pd pan1;
#X obj -58 155 t b f;
#X obj 383 115 vsl 8 48 0 1 0 1 empty empty empty 0 -9 0 10 -262144
-1 -1 4700 1;
#X obj 681 252 t f f;
#X obj 685 284 *;
#X obj 93 688 *~;
#X obj 238 701 *~;
#X obj 321 56 inlet;
#X text 361 56 bang to change;
#X obj 343 123 tgl 15 1 empty empty ext 17 7 0 10 -262144 -1 -1 0 1
;
#X obj -57 228 t b;
#X obj -56 182 metro;
#X obj 409 90 == 0;
#X obj 258 42 != 0;
#X obj -62 206 spigot;
#X obj 283 77 spigot;
#X obj 184 124 nbx 3 14 0.1 10 0 1 empty empty fmd -19 8 0 10 -262144
-1 -1 0.904095 256;
#X obj 500 42 t b f;
#X obj 305 106 nbx 7 14 1 1e+037 0 1 empty empty seed -27 8 0 10 -262144
-1 -1 44861 256;
#X obj 196 25 inlet;
#X text 202 8 reset;
#X obj 196 48 t b;
#X text 469 118 ardots binary synth patch. added pitch control \, random
seed \, pan and some other stuff.;
#X text 509 156 9/2011 martin brinkmann;
#X obj -43 423 abs_osc_binrfmsdrone1;
#X obj 63 457 abs_osc_binrfmsdrone1;
#X obj 173 434 abs_osc_binrfmsdrone1;
#X obj 288 460 abs_osc_binrfmsdrone1;
#X obj 401 484 abs_osc_binrfmsdrone1;
#X obj 525 501 abs_osc_binrfmsdrone1;
#X obj 641 532 abs_osc_binrfmsdrone1;
#X obj 530 81 + 6;
#X obj 557 81 + 12;
#X obj 589 81 + 18;
#X obj 624 81 + 24;
#X obj 659 80 + 30;
#X obj 695 80 + 36;
#X obj 122 60 r f;
#X obj 148 31 inlet;
#X obj 576 -36 r each_stupidly_minding_its_own_business;
#X obj 567 6 line;
#X connect 0 0 8 0;
#X connect 1 0 7 0;
#X connect 2 0 6 0;
#X connect 3 0 69 0;
#X connect 4 0 70 0;
#X connect 5 0 71 0;
#X connect 6 0 5 0;
#X connect 6 1 5 1;
#X connect 7 0 4 0;
#X connect 7 1 4 1;
#X connect 8 0 3 0;
#X connect 8 1 3 1;
#X connect 9 0 49 0;
#X connect 9 1 50 0;
#X connect 10 0 49 0;
#X connect 10 1 50 0;
#X connect 11 0 49 0;
#X connect 11 1 50 0;
#X connect 12 0 49 0;
#X connect 12 1 50 0;
#X connect 13 0 45 0;
#X connect 13 0 68 2;
#X connect 13 0 69 2;
#X connect 13 0 70 2;
#X connect 13 0 71 2;
#X connect 13 0 72 2;
#X connect 13 0 73 2;
#X connect 13 0 74 2;
#X connect 16 0 18 0;
#X connect 17 0 72 0;
#X connect 18 0 17 0;
#X connect 18 1 17 1;
#X connect 19 0 49 0;
#X connect 19 1 50 0;
#X connect 20 0 23 0;
#X connect 21 0 3 0;
#X connect 21 0 4 0;
#X connect 21 0 5 0;
#X connect 21 0 17 0;
#X connect 21 0 38 0;
#X connect 21 0 41 0;
#X connect 21 0 68 0;
#X connect 22 0 21 0;
#X connect 23 0 21 0;
#X connect 23 0 27 0;
#X connect 23 1 21 1;
#X connect 23 1 27 1;
#X connect 25 0 68 1;
#X connect 25 0 69 1;
#X connect 25 0 70 1;
#X connect 25 0 71 1;
#X connect 25 0 72 1;
#X connect 26 0 27 0;
#X connect 26 0 73 1;
#X connect 26 0 74 1;
#X connect 27 0 25 0;
#X connect 28 0 62 0;
#X connect 29 0 55 0;
#X connect 30 0 9 0;
#X connect 31 0 10 0;
#X connect 32 0 11 0;
#X connect 33 0 12 0;
#X connect 34 0 19 0;
#X connect 35 0 43 0;
#X connect 36 0 44 0;
#X connect 37 0 39 0;
#X connect 38 0 73 0;
#X connect 39 0 38 0;
#X connect 39 1 38 1;
#X connect 40 0 42 0;
#X connect 41 0 74 0;
#X connect 42 0 41 0;
#X connect 42 1 41 1;
#X connect 43 0 49 0;
#X connect 43 1 50 0;
#X connect 44 0 49 0;
#X connect 44 1 50 0;
#X connect 45 0 55 0;
#X connect 45 1 55 1;
#X connect 46 0 47 0;
#X connect 47 0 48 0;
#X connect 47 1 48 1;
#X connect 48 0 49 1;
#X connect 48 0 50 1;
#X connect 49 0 14 0;
#X connect 50 0 15 0;
#X connect 51 0 59 0;
#X connect 53 0 56 0;
#X connect 53 0 57 0;
#X connect 54 0 68 3;
#X connect 54 0 69 3;
#X connect 54 0 70 3;
#X connect 54 0 71 3;
#X connect 54 0 72 3;
#X connect 54 0 73 3;
#X connect 54 0 74 3;
#X connect 55 0 58 0;
#X connect 56 0 58 1;
#X connect 57 0 59 1;
#X connect 58 0 54 0;
#X connect 59 0 54 0;
#X connect 60 0 68 4;
#X connect 60 0 69 4;
#X connect 60 0 70 4;
#X connect 60 0 71 4;
#X connect 60 0 72 4;
#X connect 60 0 73 4;
#X connect 60 0 74 4;
#X connect 61 0 29 0;
#X connect 61 0 13 0;
#X connect 61 1 68 5;
#X connect 61 1 75 0;
#X connect 61 1 76 0;
#X connect 61 1 77 0;
#X connect 61 1 78 0;
#X connect 61 1 79 0;
#X connect 61 1 80 0;
#X connect 62 0 61 0;
#X connect 63 0 65 0;
#X connect 65 0 62 0;
#X connect 68 0 9 1;
#X connect 69 0 10 1;
#X connect 70 0 11 1;
#X connect 71 0 12 1;
#X connect 72 0 19 1;
#X connect 73 0 43 1;
#X connect 74 0 44 1;
#X connect 75 0 69 5;
#X connect 76 0 70 5;
#X connect 77 0 71 5;
#X connect 78 0 72 5;
#X connect 79 0 73 5;
#X connect 80 0 74 5;
#X connect 81 0 26 0;
#X connect 82 0 60 0;
#X connect 83 0 84 0;
#X connect 84 0 46 0;
#X coords 0 -1 1 1 294 75 1 100 100;
#X restore 189 497 pd QFT;
#X obj 39 196 * 3;
#X obj 39 222 / 2;
#X obj 53 -58 r k;
#X obj 103 -61 r m;
#X obj 88 70 sqrt;
#X obj 88 21 /;
#X floatatom 52 -34 5 0 0 0 - - -;
#X floatatom 103 -34 5 0 0 0 - - -;
#X floatatom 88 44 5 0 0 0 - - -;
#X obj 134 -58 hradio 15 1 0 8 empty empty empty 0 -8 0 10 -262144
-1 -1 1;
#X obj 101 -10 bng 15 250 50 0 empty empty empty 17 7 0 10 -262144
-1 -1;
#X floatatom 87 149 5 0 0 0 - - -;
#X obj 156 -30 r h-barra;
#X floatatom 154 103 5 0 0 0 - - -;
#X obj 89 221 / 2;
#X obj 90 194 * 5;
#X obj 142 218 / 2;
#X obj 141 190 * 7;
#X floatatom 38 247 5 0 0 0 - - -;
#X floatatom 88 246 5 0 0 0 - - -;
#X floatatom 141 243 5 0 0 0 - - -;
#X obj 97 98 bng 15 250 50 0 empty empty empty 17 7 0 10 -262144 -1
-1;
#X obj 218 405 line~;
#N canvas 0 0 450 300 (subpatch) 0;
#X array salida 882 float 0;
#X coords 0 1 882 -1 200 130 1;
#X restore 449 301 graph;
#X floatatom 218 336 0 0 0 0 - - -;
#X obj -36 390 -~ 0.5;
#X obj -35 421 *~;
#X obj 217 430 +~ 1;
#X obj -35 490 +~ 1;
#X obj -34 558 *~;
#X floatatom 100 337 4 0 0 0 - - -;
#X obj 83 446 *~;
#X obj 100 403 line~;
#N canvas 0 0 450 300 (subpatch) 0;
#X array transportadora 882 float 0;
#X coords 0 1 881 -1 200 140 1;
#X restore 444 122 graph;
#N canvas 0 0 450 300 (subpatch) 0;
#X array ventana 882 float 0;
#X coords 0 1 881 -1 200 140 1;
#X restore 442 -44 graph;
#X floatatom -34 321 4 0 0 0 - - -;
#X obj -35 593 hip~;
#X obj 107 555 bng 18 250 50 0 empty empty empty 0 -6 0 8 -262144 -1
-1;
#X obj -35 513 *~ 0.5;
#X text 62 317 indice modulacion;
#X obj 106 506 tgl 15 0 empty empty empty 17 7 0 10 -262144 -1 -1 1
1;
#X obj 103 528 metro 100;
#X obj 157 -7 tgl 15 0 empty empty empty 17 7 0 10 -262144 -1 -1 1
1;
#X text 138 148 Frecuencia angular;
#X text -44 301 Transportadora;
#X text 468 440 --- 0.02 segundos ---;
#X obj -35 467 cos~;
#X obj 82 473 cos~;
#X obj 154 79 / 1000;
#X obj 157 48 random 2000;
#X text 201 316 Ancho banda;
#X obj 156 18 metro 500;
#X obj -38 366 phasor~;
#X text -28 269 Energias posibles Osciladores armonicos cuanticos;
#N canvas 129 316 777 218 graficar 0;
#X obj 70 76 inlet~;
#X obj 662 76 inlet;
#X obj 298 81 inlet~;
#X obj 472 74 inlet~;
#X msg 672 142 \; pd dsp 1;
#X obj 68 143 tabwrite~ salida;
#X obj 295 147 tabwrite~ ventana;
#X obj 477 149 tabwrite~ transportadora;
#X connect 0 0 5 0;
#X connect 1 0 4 0;
#X connect 1 0 5 0;
#X connect 1 0 6 0;
#X connect 1 0 7 0;
#X connect 2 0 6 0;
#X connect 3 0 7 0;
#X restore 31 580 pd graficar;
#X obj -36 343 s f;
#X obj 86 172 s w;
#X text 310 304 MIDI OUT;
#N canvas 635 365 532 446 midi 0;
#X obj 165 78 loadbang;
#X obj 96 184 metro;
#X obj 96 236 makenote;
#X floatatom 189 166 0 0 0 0 - - -;
#X obj 96 210 f;
#X floatatom 145 166 0 0 0 0 - - -;
#X floatatom 233 166 0 0 0 0 - - -;
#X floatatom 276 166 0 0 0 0 - - -;
#X msg 165 113 500;
#X msg 197 113 60;
#X msg 226 113 64;
#X text 144 145 rate;
#X text 187 145 pitch;
#X text 232 145 vel;
#X text 268 146 length;
#X obj 230 257 ctlout 1;
#X floatatom 230 228 0 0 0 0 - - -;
#X obj 185 46 inlet;
#X msg 254 113 1000;
#X obj 96 262 noteout 1;
#X obj 244 11 unpack 0 0 0;
#X obj 256 72 pack 0 0;
#X msg 120 116 1;
#X obj 240 44 * 128;
#X obj 247 -19 r yet_forming_white_surf_in_unison;
#X connect 0 0 8 0;
#X connect 0 0 9 0;
#X connect 0 0 10 0;
#X connect 0 0 18 0;
#X connect 0 0 22 0;
#X connect 1 0 4 0;
#X connect 2 0 19 0;
#X connect 2 1 19 1;
#X connect 3 0 4 1;
#X connect 4 0 2 0;
#X connect 5 0 1 1;
#X connect 6 0 2 1;
#X connect 7 0 2 2;
#X connect 8 0 5 0;
#X connect 9 0 3 0;
#X connect 10 0 6 0;
#X connect 16 0 15 0;
#X connect 17 0 3 0;
#X connect 18 0 7 0;
#X connect 20 0 23 0;
#X connect 20 1 21 1;
#X connect 20 2 7 0;
#X connect 21 0 6 0;
#X connect 22 0 1 0;
#X connect 23 0 21 0;
#X connect 24 0 20 0;
#X restore 311 350 pd midi;
#X obj 311 324 ftom;
#X obj 157 -120 loadbang;
#X msg 155 -87 1;
#X obj 191 217 / 2;
#X obj 190 188 * 9;
#X floatatom 194 245 5 0 0 0 - - -;
#X text 18 334 MIDI OUT;
#N canvas 515 230 484 446 midi 0;
#X floatatom 51 187 0 0 0 0 - - -;
#X obj 118 34 loadbang;
#X obj 60 223 metro;
#X obj 60 275 makenote;
#X floatatom 122 183 0 0 0 0 - - -;
#X obj 60 249 f;
#X floatatom 86 192 0 0 0 0 - - -;
#X floatatom 190 178 0 0 0 0 - - -;
#X floatatom 236 185 0 0 0 0 - - -;
#X msg 115 107 500;
#X msg 147 107 60;
#X msg 176 107 64;
#X text 85 169 rate;
#X text 189 157 vel;
#X text 228 165 length;
#X obj 210 293 ctlout 1;
#X floatatom 210 264 0 0 0 0 - - -;
#X obj 123 146 inlet;
#X msg 204 107 1000;
#X obj 58 301 noteout 2;
#X obj 190 139 inlet;
#X obj 182 -60 r trillions_apart;
#X obj 179 -30 unpack 0 0 0;
#X obj 193 32 pack 0 0;
#X obj 192 65 line;
#X obj 182 4 * 128;
#X msg 83 104 1;
#X connect 0 0 2 0;
#X connect 1 0 9 0;
#X connect 1 0 10 0;
#X connect 1 0 11 0;
#X connect 1 0 18 0;
#X connect 1 0 26 0;
#X connect 2 0 5 0;
#X connect 3 0 19 0;
#X connect 3 1 19 1;
#X connect 4 0 5 1;
#X connect 5 0 3 0;
#X connect 6 0 2 1;
#X connect 7 0 3 1;
#X connect 8 0 3 2;
#X connect 9 0 6 0;
#X connect 10 0 4 0;
#X connect 11 0 7 0;
#X connect 16 0 15 0;
#X connect 17 0 4 0;
#X connect 18 0 8 0;
#X connect 20 0 7 0;
#X connect 21 0 22 0;
#X connect 22 0 25 0;
#X connect 22 1 23 1;
#X connect 22 2 8 0;
#X connect 23 0 24 0;
#X connect 24 0 7 0;
#X connect 25 0 23 0;
#X connect 26 0 0 0;
#X restore 24 384 pd midi;
#X obj 24 358 ftom;
#X obj 185 -3 bng 15 250 50 0 empty empty empty 17 7 0 10 -262144 -1
-1;
#X obj -24 635 +~;
#X obj 64 633 +~;
#X msg 52 -79 600;
#X obj 135 129 * 2;
#N canvas 850 184 308 441 salida---- 0;
#X obj 50 299 inlet~;
#X obj 45 267 line~;
#X obj 36 357 *~;
#X obj 56 387 dac~;
#X obj 126 296 inlet~;
#X obj 95 360 *~;
#X msg 45 211 0;
#X obj 45 188 moses 0.011;
#X obj 44 156 line;
#X msg 107 114 0 12000;
#X obj 50 326 hip~ 10;
#X obj 125 328 hip~ 10;
#X obj 45 246 pack 0 50;
#X msg 27 113 0.4 12000;
#X obj 45 58 r There_are_the_rushing_waves;
#X floatatom 51 85 5 0 0 0 - - -;
#X connect 0 0 10 0;
#X connect 1 0 5 0;
#X connect 1 0 2 0;
#X connect 2 0 3 0;
#X connect 4 0 11 0;
#X connect 5 0 3 1;
#X connect 6 0 12 0;
#X connect 7 0 6 0;
#X connect 7 1 12 0;
#X connect 8 0 7 0;
#X connect 9 0 8 0;
#X connect 10 0 2 1;
#X connect 11 0 5 1;
#X connect 12 0 1 0;
#X connect 13 0 8 0;
#X connect 14 0 8 0;
#X connect 14 0 15 0;
#X restore -23 661 pd salida----;
#X obj -33 444 clip~ -0.5 0.5;
#X obj 100 380 pack 0 150;
#X obj 218 382 pack 0 150;
#X floatatom 340 -18 5 0 0 0 - - -;
#X obj 101 358 / 50;
#X obj 218 359 / 50;
#X msg 192 -87 0;
#X obj 272 -95 r mountains_of_molecules;
#X obj 99 293 % 150;
#X obj 215 299 % 150;
#X obj 271 -68 unpack 0 0;
#X obj 338 -40 line \$1 5000;
#X obj 120 472 loadbang;
#X msg 137 503 1;
#X obj 87 120 * 1;
#X text -5 -79 Spring;
#X text 101 -85 Mass;
#X connect 0 0 2 1;
#X connect 1 0 0 0;
#X connect 2 0 72 1;
#X connect 2 1 73 1;
#X connect 3 0 4 0;
#X connect 4 0 21 0;
#X connect 5 0 9 0;
#X connect 6 0 10 0;
#X connect 7 0 91 0;
#X connect 8 0 11 0;
#X connect 9 0 8 0;
#X connect 10 0 8 1;
#X connect 10 0 13 0;
#X connect 11 0 7 0;
#X connect 12 0 10 0;
#X connect 13 0 8 0;
#X connect 14 0 3 0;
#X connect 14 0 18 0;
#X connect 14 0 20 0;
#X connect 14 0 59 0;
#X connect 14 0 66 0;
#X connect 15 0 16 0;
#X connect 16 0 24 0;
#X connect 16 0 75 1;
#X connect 16 0 91 1;
#X connect 17 0 22 0;
#X connect 18 0 17 0;
#X connect 19 0 23 0;
#X connect 20 0 19 0;
#X connect 21 0 38 0;
#X connect 22 0 85 0;
#X connect 23 0 75 0;
#X connect 23 0 86 0;
#X connect 24 0 13 0;
#X connect 24 0 91 0;
#X connect 25 0 30 0;
#X connect 27 0 82 0;
#X connect 28 0 29 0;
#X connect 28 0 34 0;
#X connect 29 0 77 0;
#X connect 30 0 29 1;
#X connect 31 0 41 0;
#X connect 32 0 57 0;
#X connect 32 0 39 0;
#X connect 33 0 81 0;
#X connect 34 0 50 0;
#X connect 35 0 34 1;
#X connect 38 0 55 0;
#X connect 38 0 58 0;
#X connect 38 0 70 0;
#X connect 39 0 72 0;
#X connect 39 0 73 0;
#X connect 40 0 57 3;
#X connect 41 0 32 0;
#X connect 41 0 57 1;
#X connect 43 0 44 0;
#X connect 44 0 40 0;
#X connect 45 0 54 0;
#X connect 49 0 31 0;
#X connect 50 0 32 1;
#X connect 50 0 57 2;
#X connect 51 0 16 0;
#X connect 52 0 51 0;
#X connect 54 0 52 0;
#X connect 55 0 28 0;
#X connect 62 0 61 0;
#X connect 63 0 74 0;
#X connect 63 0 64 0;
#X connect 63 0 83 0;
#X connect 64 0 12 0;
#X connect 65 0 67 0;
#X connect 66 0 65 0;
#X connect 67 0 62 0;
#X connect 70 0 69 0;
#X connect 71 0 52 0;
#X connect 72 0 76 0;
#X connect 73 0 76 1;
#X connect 74 0 9 0;
#X connect 75 0 54 1;
#X connect 77 0 49 0;
#X connect 78 0 35 0;
#X connect 79 0 25 0;
#X connect 80 0 81 1;
#X connect 81 0 78 0;
#X connect 82 0 79 0;
#X connect 83 0 45 0;
#X connect 84 0 87 0;
#X connect 85 0 33 0;
#X connect 86 0 27 0;
#X connect 87 0 45 0;
#X connect 87 1 88 0;
#X connect 88 0 80 0;
#X connect 89 0 90 0;
#X connect 90 0 43 0;
#X connect 91 0 14 0;
#X restore -27 -42 pd audio---------;
#N canvas 1399 186 378 196 control------------- 0;
#X obj -196 135 s QFT;
#X floatatom -199 112 5 0 0 0 - - -;
#X obj -197 94 hsl 128 15 0 1 0 0 empty empty empty -2 -8 0 10 -262144
-1 -1 11482 1;
#X obj -202 66 line;
#X obj -204 21 bng 15 250 50 0 empty empty empty 17 7 0 10 -262144
-1 -1;
#X obj -116 21 bng 15 250 50 0 empty empty empty 17 7 0 10 -262144
-1 -1;
#X obj -203 -1 select 0 1;
#X obj -206 -22 loadbang;
#X msg -204 40 1 200000;
#X msg -122 44 0 200000;
#X connect 1 0 0 0;
#X connect 1 0 6 0;
#X connect 2 0 1 0;
#X connect 3 0 2 0;
#X connect 4 0 8 0;
#X connect 5 0 9 0;
#X connect 6 0 4 0;
#X connect 6 1 5 0;
#X connect 7 0 4 0;
#X connect 8 0 3 0;
#X connect 9 0 3 0;
#X restore -29 8 pd control-------------;
#N canvas 1321 195 243 186 Lector_de_texto 0;
#X obj 23 61 qlist;
#X obj 93 -56 loadbang;
#X msg 40 26 tempo 1 \, bang;
#X obj 41 0 del 10;
#X obj 15 -82 key;
#X obj 15 -58 select 32;
#X text 57 -82 space bar;
#X msg 16 -29 read Feynman.txt;
#X connect 1 0 7 0;
#X connect 1 0 3 0;
#X connect 2 0 0 0;
#X connect 3 0 2 0;
#X connect 4 0 5 0;
#X connect 5 0 7 0;
#X connect 5 0 3 0;
#X connect 7 0 0 0;
#X restore -28 -17 pd Lector_de_texto;
#X text -31 -116 QFT;
